<svg xmlns="http://www.w3.org/2000/svg" width="1280" height="452" viewBox="0 0 1280 452">
  <defs>
    <radialGradient id="left" cx="35%" cy="35%" r="75%">
      <stop offset="0" stop-color="#7fb2ff"/>
      <stop offset="0.55" stop-color="#3a7bea"/>
      <stop offset="1" stop-color="#3a7bea" stop-opacity="0"/>
    </radialGradient>
    <radialGradient id="right" cx="65%" cy="35%" r="75%">
      <stop offset="0" stop-color="#ff9a8f"/>
      <stop offset="0.55" stop-color="#ff5b6e"/>
      <stop offset="1" stop-color="#ff5b6e" stop-opacity="0"/>
    </radialGradient>
    <linearGradient id="xr" x1="0" y1="0" x2="1" y2="0">
      <stop offset="0" stop-color="#7fb2ff"/>
      <stop offset="1" stop-color="#ff7a86"/>
    </linearGradient>
  </defs>
  <rect width="1280" height="452" fill="#000"/>

  <!-- the mark: a headset visor seeing two eyes' worth of image -->
  <g transform="translate(350 226)">
    <circle cx="-48" cy="0" r="62" fill="url(#left)"/>
    <circle cx="48" cy="0" r="62" fill="url(#right)"/>
    <path d="M -150 -78 H 150 a 32 32 0 0 1 32 32 V 46 a 32 32 0 0 1 -32 32 H 44 L 22 50 H -22 L -44 78 H -150 a 32 32 0 0 1 -32 -32 V -46 a 32 32 0 0 1 32 -32 Z"
          fill="none" stroke="#fff" stroke-width="14" stroke-linejoin="round"/>
  </g>

  <!-- the name -->
  <text x="575" y="268" font-family="'SF Pro Display', 'Helvetica Neue', Helvetica, Arial, sans-serif"
        font-size="150" font-weight="500" letter-spacing="-2" fill="#fff">Emu<tspan fill="url(#xr)">XR</tspan>2</text>
  <text x="581" y="322" font-family="'SF Pro Text', 'Helvetica Neue', Helvetica, Arial, sans-serif"
        font-size="30" fill="#8a8f98" letter-spacing="1">Horizon OS on Apple silicon</text>
</svg>
